<?xml version="1.0" standalone="no"?>
<!DOCTYPE svg PUBLIC "-//W3C//DTD SVG 20010904//EN"
 "http://www.w3.org/TR/2001/REC-SVG-20010904/DTD/svg10.dtd">
<svg version="1.0" xmlns="http://www.w3.org/2000/svg"
 width="200.000000pt" height="200.000000pt" viewBox="0 0 200.000000 200.000000"
 preserveAspectRatio="xMidYMid meet">

<g transform="translate(0.000000,200.000000) scale(0.100000,-0.100000)"
fill="#000000" stroke="none">
<path d="M775 1249 c-4 -5 -5 -11 -4 -12 2 -1 16 -13 31 -25 19 -18 31 -21 43
-14 15 8 14 11 -11 29 -46 32 -52 34 -59 22z"/>
<path d="M1382 1243 c2 -10 8 -21 13 -25 6 -5 5 -8 -2 -8 -7 0 -13 -7 -13 -15
0 -8 -9 -15 -20 -15 -15 0 -20 7 -20 26 0 40 -34 28 -38 -14 -2 -17 -7 -32
-13 -32 -5 0 -9 -5 -9 -11 0 -6 7 -9 15 -6 8 4 17 1 21 -5 4 -7 3 -8 -4 -4 -9
5 -12 -15 -12 -74 0 -76 1 -81 25 -90 31 -12 136 -9 128 4 -3 5 -1 6 6 2 15
-10 41 11 41 34 0 10 -6 20 -14 23 -16 6 -29 -19 -19 -36 3 -7 3 -9 -2 -5 -4
4 -14 3 -21 -2 -12 -11 -79 -8 -91 4 -3 3 -12 1 -19 -5 -8 -7 -14 -7 -19 1 -4
6 -1 9 7 8 10 -2 13 15 13 74 0 84 0 84 73 93 13 2 30 9 38 16 8 6 17 9 21 5
3 -3 2 -6 -3 -6 -5 0 -9 -16 -10 -35 0 -18 2 -32 6 -30 4 2 7 -2 7 -10 0 -8
-2 -13 -5 -10 -5 4 -32 -20 -32 -29 0 -3 11 -6 24 -6 23 0 24 4 28 61 1 34 0
66 -3 71 -4 6 -20 7 -38 3 -30 -6 -31 -6 -31 29 0 26 -4 36 -15 36 -10 0 -15
-7 -13 -17z"/>
<path d="M177 1233 c-4 -3 -7 -37 -7 -74 l0 -67 70 0 c66 0 101 -9 72 -19 -9
-4 -6 -11 9 -24 24 -20 32 -23 42 -12 4 3 -3 17 -15 30 l-21 23 24 1 c13 1 48
1 77 1 l52 -1 0 74 0 75 -148 0 c-82 0 -152 -3 -155 -7z m79 -13 c37 0 44 -3
44 -20 0 -17 -7 -20 -50 -20 -45 0 -52 4 -49 26 0 4 -5 11 -13 16 -9 7 -8 8 5
4 10 -3 39 -6 63 -6z m184 -21 c0 -16 -8 -19 -44 -19 -26 0 -46 -5 -49 -12 -3
-7 -6 0 -6 15 -1 32 24 46 70 39 20 -3 29 -10 29 -23z m27 -34 c0 -8 -4 -12
-9 -9 -5 3 -6 10 -3 15 9 13 12 11 12 -6z m-167 -29 c0 -29 -8 -33 -59 -28
-34 3 -37 6 -33 28 4 21 10 24 48 24 40 0 44 -2 44 -24z m140 4 c0 -13 4 -19
12 -14 7 4 8 3 4 -4 -9 -16 -97 -15 -116 1 -29 23 -18 32 41 35 54 3 59 2 59
-18z"/>
<path d="M1130 1230 c0 -5 20 -10 45 -10 44 0 45 -1 45 -32 0 -57 -10 -79 -34
-76 -18 3 -21 9 -18 41 3 27 0 37 -11 37 -10 0 -16 -15 -20 -47 -3 -27 -4 -49
-4 -49 1 -1 32 -4 70 -6 55 -4 67 -3 67 9 0 10 -7 14 -20 10 -12 -3 -18 -1
-14 5 4 5 10 37 13 69 l7 59 -63 0 c-35 0 -63 -4 -63 -10z"/>
<path d="M892 1186 c-17 -24 -28 -47 -24 -51 4 -5 2 -5 -5 -1 -7 4 -30 -10
-54 -33 -23 -21 -48 -37 -56 -34 -7 3 -13 0 -13 -6 0 -18 5 -26 13 -23 5 1 6
-2 2 -8 -5 -8 -11 -8 -19 -1 -9 8 -26 4 -60 -13 -34 -17 -43 -26 -34 -34 14
-11 58 1 58 16 0 5 10 8 23 7 15 -1 21 -7 19 -20 -2 -11 1 -15 10 -12 7 2 12
10 10 17 -3 11 0 11 12 0 19 -15 21 -24 4 -14 -7 4 -8 3 -4 -4 10 -16 105 -15
135 1 14 6 28 24 32 40 6 23 4 27 -14 27 -13 0 -26 -9 -32 -22 -8 -20 -18 -23
-60 -23 -49 0 -50 0 -51 32 -1 18 3 30 7 27 8 -4 80 54 106 86 16 19 16 33 1
24 -7 -4 -8 -3 -4 5 4 6 12 9 17 5 13 -8 52 33 44 46 -12 20 -32 9 -63 -34z"/>
<path d="M758 1192 c-21 -4 -24 -18 -5 -25 10 -4 10 -6 0 -6 -19 -1 -17 -77 2
-85 18 -7 28 25 23 80 -2 31 -7 39 -20 36z"/>
<path d="M647 1113 c-13 -42 -12 -49 0 -56 18 -11 18 -12 36 51 14 49 14 52
-4 52 -13 0 -22 -13 -32 -47z"/>
<path d="M1387 1153 c-4 -3 -7 -35 -7 -70 0 -49 3 -63 15 -63 12 0 15 14 15
70 0 64 -6 81 -23 63z"/>
<path d="M934 1128 c-8 -13 25 -40 39 -31 6 3 7 1 3 -6 -4 -6 -12 -8 -18 -5
-6 4 -6 -1 1 -14 7 -14 17 -18 31 -15 11 3 17 9 14 14 -3 5 -10 6 -16 3 -7 -4
-8 -2 -4 5 8 13 -18 61 -34 61 -5 0 -12 -5 -16 -12z"/>
<path d="M1235 1051 c-5 -22 -3 -36 4 -41 17 -10 -37 -32 -60 -25 -13 4 -19 1
-19 -9 0 -20 70 -22 88 -4 15 15 16 48 0 48 -6 0 -4 6 5 13 16 11 16 15 4 32
-14 18 -15 17 -22 -14z"/>
<path d="M155 1029 c-9 -16 -13 -34 -10 -39 11 -18 32 -10 43 15 16 34 15 42
-3 49 -10 3 -20 -5 -30 -25z m16 -32 c-10 -9 -11 -8 -5 6 3 10 9 15 12 12 3
-3 0 -11 -7 -18z"/>
<path d="M237 1053 c-13 -12 -7 -62 9 -77 23 -24 174 -21 174 3 0 3 -11 7 -25
7 -14 1 -25 -1 -25 -5 0 -4 -21 -4 -47 -1 -47 5 -48 6 -51 43 -3 34 -18 48
-35 30z"/>
<path d="M462 1051 c-19 -12 5 -61 30 -61 15 0 18 5 13 23 -10 32 -28 48 -43
38z"/>
<path d="M1157 1052 c-24 -2 -37 -8 -34 -15 4 -11 65 -13 75 -2 12 12 -7 20
-41 17z"/>
<path d="M397 1014 c-14 -14 -7 -24 16 -20 12 1 21 7 20 12 -3 12 -27 17 -36
8z"/>
<path d="M833 842 c-46 -2 -63 -7 -63 -17 0 -11 18 -15 73 -17 69 -3 72 -4 72
-28 0 -23 -4 -25 -63 -30 -73 -6 -82 -15 -82 -82 0 -36 4 -48 15 -48 11 0 15
11 15 38 0 43 26 77 48 63 19 -11 63 -1 55 13 -4 6 1 4 11 -4 16 -12 19 -12
29 5 16 29 18 47 6 76 -12 31 -29 35 -116 31z"/>
<path d="M1037 843 c-11 -3 -16 -11 -13 -19 3 -7 0 -13 -7 -11 -15 3 -21 -37
-9 -59 6 -10 5 -27 -1 -44 -8 -20 -7 -36 2 -59 l13 -31 84 1 c79 1 100 8 72
25 -7 5 -8 3 -3 -7 7 -11 6 -12 -6 -2 -8 6 -39 13 -69 15 -43 2 -56 7 -58 21
-7 34 17 47 85 47 47 0 64 3 61 13 -3 7 -31 14 -74 17 -66 5 -69 6 -69 30 0
24 3 25 70 30 53 4 70 9 70 20 0 12 -15 15 -65 17 -36 0 -73 -1 -83 -4z"/>
<path d="M1267 843 c-40 -10 -7 -28 59 -33 66 -5 69 -6 69 -30 0 -24 -3 -25
-69 -30 -92 -7 -98 -26 -9 -29 37 -1 69 -4 72 -7 2 -2 11 2 20 9 14 11 14 10
3 -5 -8 -10 -12 -31 -9 -52 3 -20 1 -33 -4 -30 -5 3 -7 8 -5 12 2 4 -27 5 -65
2 -38 -3 -70 -9 -72 -15 -3 -15 91 -19 108 -5 11 9 15 9 15 1 0 -6 9 -11 20
-11 11 0 20 7 20 15 0 8 4 15 9 15 13 0 11 140 -2 168 -11 23 -28 31 -23 10 1
-7 1 -10 -1 -6 -2 4 -10 5 -18 2 -7 -3 -16 -1 -20 5 -3 7 0 8 9 5 9 -3 16 -1
16 5 0 11 -85 14 -123 4z"/>
<path d="M1715 840 c-3 -5 -3 -10 2 -10 4 0 7 -47 5 -104 -3 -101 -2 -105 17
-103 18 1 21 8 21 44 l0 43 55 0 55 0 0 -37 c1 -36 2 -37 15 -19 8 11 15 15
15 9 0 -6 -7 -16 -15 -23 -21 -18 -19 -29 5 -23 19 5 20 14 20 119 0 107 -1
114 -20 114 -17 0 -20 -7 -20 -50 l0 -50 -55 0 -55 0 0 50 c0 43 -3 50 -19 50
-11 0 -23 -4 -26 -10z"/>
<path d="M535 830 c-3 -5 -3 -15 1 -22 4 -7 3 -8 -4 -4 -18 11 -11 -62 7 -78
9 -9 42 -16 76 -18 49 -2 60 -6 63 -22 6 -27 -15 -36 -90 -36 -53 0 -68 -3
-68 -14 0 -12 17 -14 87 -13 84 2 88 3 100 28 14 29 1 89 -19 89 -6 0 -4 -8 3
-17 13 -17 12 -17 -6 -2 -11 8 -40 17 -65 18 -53 3 -63 10 -58 42 3 23 8 24
81 27 59 2 77 6 77 17 0 8 -7 15 -16 15 -9 0 -12 -5 -8 -12 6 -10 4 -10 -7 0
-16 15 -145 17 -154 2z"/>
<path d="M1510 825 c-6 -8 -8 -20 -4 -26 4 -7 3 -9 -3 -6 -14 9 -23 -16 -23
-63 0 -48 9 -72 23 -63 6 4 8 0 4 -10 -10 -25 13 -34 91 -36 56 -1 73 1 70 11
-6 18 -69 23 -79 6 -7 -10 -9 -10 -9 0 0 6 -6 12 -13 12 -27 0 -47 36 -47 83
0 25 5 49 10 52 6 4 8 11 5 16 -3 5 1 6 9 3 9 -3 16 -2 16 2 0 5 23 9 52 9 32
0 53 5 55 13 7 19 -141 17 -157 -3z"/>
</g>
</svg>
