<?xml version="1.0" standalone="no"?>
<!DOCTYPE svg PUBLIC "-//W3C//DTD SVG 20010904//EN"
 "http://www.w3.org/TR/2001/REC-SVG-20010904/DTD/svg10.dtd">
<svg version="1.0" xmlns="http://www.w3.org/2000/svg"
 width="170.000000pt" height="170.000000pt" viewBox="0 0 170.000000 170.000000"
 preserveAspectRatio="xMidYMid meet">

<g transform="translate(0.000000,170.000000) scale(0.100000,-0.100000)"
fill="#000000" stroke="none">
<path d="M748 1449 c-17 -9 -18 -48 -18 -588 0 -538 1 -579 18 -593 9 -9 27
-19 40 -22 l22 -7 0 600 c0 583 -1 601 -19 611 -23 12 -22 12 -43 -1z"/>
<path d="M908 1449 c-17 -9 -18 -49 -18 -609 0 -651 -3 -623 54 -579 l26 20 0
579 c0 563 -1 580 -19 590 -23 12 -22 12 -43 -1z"/>
<path d="M571 1341 c-6 -11 -11 -78 -11 -155 0 -123 2 -138 20 -156 11 -11 29
-20 40 -20 20 0 20 5 18 173 l-3 172 -27 3 c-18 2 -30 -3 -37 -17z"/>
<path d="M1067 1353 c-4 -3 -7 -82 -7 -175 0 -161 1 -168 20 -168 11 0 29 9
40 20 18 18 20 33 20 156 0 74 -5 144 -10 155 -10 18 -50 26 -63 12z"/>
<path d="M247 1264 c-4 -4 -7 -119 -7 -254 0 -261 0 -260 48 -275 l22 -6 -2
268 -3 268 -25 3 c-14 2 -29 0 -33 -4z"/>
<path d="M413 1263 c-10 -3 -13 -58 -13 -222 0 -214 0 -218 23 -239 13 -12 31
-22 40 -22 15 0 17 21 17 233 0 168 -3 236 -12 245 -12 12 -33 14 -55 5z"/>
<path d="M1232 1258 c-9 -9 -12 -73 -12 -245 0 -219 1 -233 18 -233 10 0 28
11 40 23 22 23 22 29 20 243 l-3 219 -25 3 c-14 2 -31 -3 -38 -10z"/>
<path d="M1397 1264 c-4 -4 -7 -126 -7 -271 l0 -264 23 7 c48 14 47 12 45 278
l-3 251 -25 3 c-14 2 -29 0 -33 -4z"/>
<path d="M560 808 c-1 -196 -7 -231 -53 -292 -30 -38 -27 -46 17 -46 38 0 68
23 92 70 16 30 19 65 22 229 4 178 2 196 -14 208 -10 7 -28 13 -41 13 l-23 0
0 -182z"/>
<path d="M1076 977 c-16 -12 -18 -30 -14 -208 3 -175 5 -198 25 -235 22 -41
56 -64 97 -64 35 0 37 10 9 46 -46 61 -52 96 -53 292 l0 182 -23 0 c-13 0 -31
-6 -41 -13z"/>
</g>
</svg>
